<svg xmlns="http://www.w3.org/2000/svg" viewBox="0 0 900 560" preserveAspectRatio="xMidYMid slice">
  <defs>
    <radialGradient id="bg" cx="50%" cy="35%" r="80%">
      <stop offset="0%" stop-color="#1b1b1b"/>
      <stop offset="55%" stop-color="#121212"/>
      <stop offset="100%" stop-color="#090909"/>
    </radialGradient>
    <radialGradient id="glow" cx="50%" cy="42%" r="45%">
      <stop offset="0%" stop-color="#d4af37" stop-opacity="0.20"/>
      <stop offset="100%" stop-color="#d4af37" stop-opacity="0"/>
    </radialGradient>
    <linearGradient id="line" x1="0" y1="0" x2="0" y2="1">
      <stop offset="0%" stop-color="#e9cf7a"/>
      <stop offset="100%" stop-color="#b8901f"/>
    </linearGradient>
  </defs>
  <rect width="900" height="560" fill="url(#bg)"/>
  <rect width="900" height="560" fill="url(#glow)"/>
  <g transform="translate(0,40)">
    <g fill="none" stroke="url(#line)" stroke-width="6" stroke-linejoin="round" stroke-linecap="round" opacity="0.9">
      <path d="M120 300 q10 -56 90 -66 l90 -70 q30 -22 120 -14 l120 10 q70 6 104 62 l70 10 q56 8 56 64 l0 4 -840 0 z"/>
    </g>
    <g fill="url(#line)" opacity="0.9"><circle cx="270" cy="300" r="40"/><circle cx="620" cy="300" r="40"/></g>
    <circle cx="270" cy="300" r="18" fill="#0c0c0c"/><circle cx="620" cy="300" r="18" fill="#0c0c0c"/>
    <line x1="60" y1="342" x2="840" y2="342" stroke="#d4af37" stroke-opacity="0.25" stroke-width="3"/>
  </g>
  <text x="450" y="470" text-anchor="middle" font-family="'Space Grotesk',Inter,sans-serif" font-size="20" letter-spacing="6" fill="#9ca3af">MERCEDES-BENZ</text>
  <text x="450" y="512" text-anchor="middle" font-family="'Space Grotesk',Inter,sans-serif" font-weight="700" font-size="40" fill="#f8f8f8">E-Class Cabrio  <tspan fill="#d4af37" font-size="26">2019</tspan></text>
</svg>